<svg width="160" height="160" viewBox="0 0 160 160" fill="none" xmlns="http://www.w3.org/2000/svg">
<path d="M45.0018 115.002C42.2681 112.268 42.2681 107.836 45.0018 105.102L105.106 44.9982C107.84 42.2645 112.272 42.2645 115.005 44.9982C117.739 47.7319 117.739 52.164 115.005 54.8977L54.9013 115.002C52.1676 117.735 47.7355 117.735 45.0018 115.002Z" fill="#1D3A58"/>
<path d="M115.005 115.002C112.272 117.735 107.84 117.735 105.106 115.002L45.0018 54.8977C42.2681 52.164 42.2681 47.7319 45.0018 44.9982C47.7355 42.2645 52.1676 42.2645 54.9013 44.9982L115.005 105.102C117.739 107.836 117.739 112.268 115.005 115.002Z" fill="#1D3A58"/>
<circle cx="80" cy="80" r="75" stroke="#1D3A58" stroke-width="10"/>
</svg>
