<svg width="264" height="43" viewBox="0 0 264 43" fill="none" xmlns="http://www.w3.org/2000/svg">
<path d="M21.5752 24.547C23.2595 24.547 24.6249 23.1829 24.6249 21.5002C24.6249 19.8175 23.2595 18.4534 21.5752 18.4534C19.8909 18.4534 18.5255 19.8175 18.5255 21.5002C18.5255 23.1829 19.8909 24.547 21.5752 24.547Z" fill="#1D3A58"/>
<path fill-rule="evenodd" clip-rule="evenodd" d="M16.995 39.3974C9.00066 37.3614 3.08864 30.1205 3.08864 21.4998C3.08864 12.8791 9.00066 5.6377 16.995 3.60214V0.431895C7.27957 2.53032 0 11.1655 0 21.4998C0 31.834 7.27957 40.4692 16.995 42.5677C17.9841 42.7811 18.9981 42.9267 20.032 43C20.032 39.9003 20.032 36.8011 20.032 33.7014C18.9719 33.5689 17.9538 33.3016 16.995 32.9176C12.465 31.1023 9.26593 26.6744 9.26593 21.4998C9.26593 16.3252 12.465 11.8972 16.995 10.0819V17.4264C17.7895 16.5355 18.8406 15.8779 20.032 15.569C20.032 12.4436 20.032 9.31853 20.032 6.19306C18.985 6.29707 17.9692 6.50601 16.995 6.80856C10.7276 8.75639 6.17729 14.5971 6.17729 21.4998C6.17729 28.4024 10.7281 34.2427 16.995 36.191V39.3974Z" fill="#1D3A58"/>
<path fill-rule="evenodd" clip-rule="evenodd" d="M26.155 3.60259C34.1494 5.63815 40.0614 12.8795 40.0614 21.5002C40.0614 30.1209 34.1494 37.3619 26.155 39.3979V42.5681C35.8705 40.4697 43.15 31.8345 43.15 21.5002C43.15 11.166 35.8705 2.53077 26.155 0.432347C25.1659 0.218887 24.1519 0.0728116 23.118 0C23.118 3.09924 23.118 6.19894 23.118 9.29863C24.1782 9.43114 25.1962 9.69842 26.155 10.0824C30.685 11.8977 33.8841 16.3256 33.8841 21.5002C33.8841 26.6748 30.685 31.1028 26.155 32.9181V25.5736C25.3606 26.4645 24.3094 27.1221 23.118 27.4305C23.118 30.556 23.118 33.6815 23.118 36.8069C24.1646 36.7029 25.1804 36.494 26.155 36.1914C32.4224 34.2432 36.9727 28.4029 36.9727 21.5002C36.9727 14.5976 32.4224 8.75729 26.155 6.80902V3.60259Z" fill="#1D3A58"/>
<path d="M55.807 9.30949V33.7959H50.8909V9.30949H55.807Z" fill="#1D3A58"/>
<path d="M81.6157 33.7959H76.7L65.5686 16.9922V33.7959H60.6525V9.27421H65.5686L76.7 26.1131V9.27421H81.6157V33.7959Z" fill="#1D3A58"/>
<path d="M103.141 9.30949V13.2734H96.6098V33.7959H91.6937V13.2734H85.1624V9.30949H103.141Z" fill="#1D3A58"/>
<path d="M111.639 13.2734V19.4127H119.891V23.3065H111.639V29.7967H120.944V33.7959H106.723V9.27421H120.944V13.2734H111.639Z" fill="#1D3A58"/>
<path d="M130.32 29.9021H138.396V33.7959H125.404V9.30949H130.32V29.9021Z" fill="#1D3A58"/>
<path d="M146.437 13.2734V19.4127H154.689V23.3065H146.437V29.7967H155.742V33.7959H141.521V9.27421H155.742V13.2734H146.437Z" fill="#1D3A58"/>
<path d="M159.008 21.5179C159.008 19.1088 159.552 16.9515 160.641 15.0453C161.729 13.1391 163.216 11.6544 165.1 10.5898C166.985 9.52566 169.098 8.99382 171.438 8.99382C174.178 8.99382 176.577 9.69525 178.637 11.0986C180.697 12.5019 182.137 14.4429 182.956 16.9221H177.303C176.741 15.7531 175.951 14.8757 174.932 14.291C173.914 13.7067 172.738 13.4141 171.403 13.4141C169.975 13.4141 168.705 13.7474 167.593 14.4135C166.482 15.0801 165.615 16.0213 164.995 17.2378C164.375 18.4539 164.064 19.8807 164.064 21.5179C164.064 23.1315 164.374 24.5524 164.995 25.7803C165.616 27.0081 166.482 27.9551 167.593 28.6217C168.705 29.2884 169.975 29.6217 171.403 29.6217C172.738 29.6217 173.914 29.3236 174.932 28.7271C175.951 28.1311 176.741 27.2478 177.303 26.0788H182.956C182.137 28.581 180.703 30.528 178.655 31.9195C176.606 33.3111 174.201 34.0066 171.438 34.0066C169.098 34.0066 166.985 33.4748 165.1 32.4102C163.216 31.3461 161.729 29.8672 160.641 27.9728C159.552 26.0783 159.008 23.927 159.008 21.5179Z" fill="#1D3A58"/>
<path d="M203.849 9.30949V13.2734H197.318V33.7959H192.402V13.2734H185.87V9.30949H203.849Z" fill="#1D3A58"/>
<path d="M212.347 9.30949V33.7959H207.431V9.30949H212.347Z" fill="#1D3A58"/>
<path d="M239.209 9.30949L230.22 33.7959H224.251L215.261 9.30949H220.528L227.27 28.7796L233.977 9.30949H239.209Z" fill="#1D3A58"/>
<path d="M257.188 29.1301H247.426L245.811 33.7959H240.649L249.463 9.27421H255.186L264 33.7959H258.803L257.188 29.1301ZM255.853 25.201L252.307 14.9576L248.76 25.201H255.853Z" fill="#1D3A58"/>
</svg>
